<?xml version="1.0" encoding="UTF-8"?>
<svg xmlns="http://www.w3.org/2000/svg" baseProfile="tiny-ps" version="1.2" viewBox="0 0 303.7 209.8">
  <!-- Generator: Adobe Illustrator 28.7.4, SVG Export Plug-In . SVG Version: 1.2.0 Build 166)  -->
  <title>28East (Pty) Ltd</title>
  <g>
    <g id="Layer_1">
      <g>
        <path d="M136.5,98.6h33.3v10h-33.4c0,10.3,4.1,14,13.6,14h19.8v10h-20.3c-6.9,0-12.3-.6-17.9-5-5.9-4.7-8.8-12.2-8.8-22.6,0-20.2,8.5-29.7,26.9-29.7h20v10h-19.8c-8.7,0-13.1,4.3-13.6,13.3h0Z" fill="#414a51"/>
        <path d="M202.9,90.5c11.5,0,17.3,5.3,17.3,15.7v26.3h-29.8c-8.4,0-13-4.4-13-12.1s5-13.4,16.7-13.4h14.6v-1c0-5.3-3-6.8-10-6.8h-18.5v-8.7h22.7,0ZM208.8,124.1v-8.7h-13.1c-4.7,0-6.9,1-6.9,4.7s2,4,6.1,4h13.9Z" fill="#414a51"/>
        <path d="M252.6,123.8c4,0,6-1.1,6-4.1s-2-4.2-6-4.2h-9.6c-10.2,0-14.5-2.1-14.5-11.9s4.7-13.2,14.8-13.2h23.8v8.8h-19.6c-5,0-7.6.3-7.6,3.8s1.7,3.8,5.3,3.8h10c9.2,0,14.1,4.5,14.1,12.5s-4.9,13.1-11.5,13.1h-28.6v-8.8h23.4,0Z" fill="#414a51"/>
        <path d="M280.9,90.5v-15.2h11.1v15.2h11.7v8.4h-11.7v17c0,5.8,1.5,8.3,7.2,8.3h4.5v8.4h-10.1c-8,0-12.7-4.6-12.7-13.2v-20.5h-7.8v-8.4h7.8Z" fill="#414a51"/>
      </g>
      <g>
        <path d="M23.4,110h10.8c11.9,0,18.4-6.3,18.4-17.9s-2.5-12.9-7.8-15.9c-3.3-1.9-7-2.1-11-2.1H0v12.3h28.6c6.4,0,8.2,1.2,8.2,5.6s-1.9,5.4-8.2,5.4h-7.7C6.1,97.4,0,102.6,0,115.3v18.4h52.5v-12.2H15.3v-4.5c0-5.2,2.1-7,8.1-7h0Z" fill="#e31b23"/>
        <path d="M105.8,103.6c4.3-3.6,6.5-8.2,6.5-13.7,0-10.7-6.6-15.9-20-15.9h-15.5c-13.5,0-20,5.2-20,16s2.2,9.9,6.6,13.5c-4.9,2.8-7.2,7.2-7.2,13.6,0,10.5,6.9,16.5,19,16.5h19c12,0,18.9-6,18.9-16.4s-2.3-10.9-7.2-13.7h0ZM89,97.7h-8.7c-7.1,0-8.1-2.7-8.1-5.7s1-5.7,8.1-5.7h8.7c7.1,0,8.1,2.8,8.1,5.7s-1,5.7-8.1,5.7ZM80.1,109.9h8.8c7.2,0,8.1,2.9,8.1,5.8s-1,5.8-8.1,5.8h-8.8c-7.1,0-8.1-2.8-8.1-5.8s1-5.8,8.1-5.8Z" fill="#e31b23"/>
      </g>
      <path d="M156.1,183.1c-27.8,0-52.3-14.3-66.5-36h-30.3c16.6,36.9,53.7,62.7,96.8,62.7s80.2-25.8,96.8-62.7h-30.3c-14.2,21.7-38.6,36-66.5,36Z" fill="#414a51"/>
      <path d="M88.8,25.3l19.1,19.1c5.4-4.3,11.5-8,18-10.9l-12.3-23.8c-9,4.1-17.4,9.3-24.8,15.5Z" fill="#e31b23"/>
      <path d="M61.5,59.8h31.6c2.6-3.5,5.5-6.9,8.6-10l-19.1-19.1c-8.6,8.4-15.8,18.2-21.2,29h0Z" fill="#414a51"/>
      <path d="M121.3,6.6l12.4,23.9c6.5-2.1,13.3-3.5,20.4-3.9V0c-11.5.5-22.5,2.8-32.8,6.6h0Z" fill="#e31b23"/>
      <path d="M254.8,50.7l-7-37.5c-.8-4.4-5.1-7.3-9.6-6.5-4.5.8-7.5,5-6.7,9.3l2.4,12.8C215.1,11.5,190,.7,162.4,0v26.5c21.1.7,40.1,9.2,54.1,22.7l-9.8,1.7c-4.5.8-7.5,5-6.7,9.3.8,4.4,5.1,7.3,9.6,6.5l38.6-6.8c4.5-.8,7.5-5,6.7-9.3h0Z" fill="#e31b23"/>
    </g>
  </g>
</svg>